<?xml version="1.0" encoding="UTF-8" standalone="no"?>
<!DOCTYPE svg PUBLIC "-//W3C//DTD SVG 1.1//EN" "http://www.w3.org/Graphics/SVG/1.1/DTD/svg11.dtd">
<svg version="1.1" xmlns="http://www.w3.org/2000/svg" xmlns:xlink="http://www.w3.org/1999/xlink" preserveAspectRatio="xMidYMid meet" viewBox="0 0 640 640" width="640" height="640"><defs><path d="M600 -671.74L600 -633.09L600 -594.45C602.32 -592.13 603.61 -590.84 603.86 -590.59C607.06 -587.39 608.93 -586.72 613.99 -586.72C621.05 -586.72 627.45 -589.92 628.52 -593.92C628.92 -595.52 629.32 -613.77 629.32 -634.43C629.32 -636.95 629.32 -649.56 629.32 -672.27C626.84 -674.59 625.46 -675.88 625.18 -676.14C621.72 -679.33 619.99 -680 613.99 -680C607.73 -680 606.53 -679.47 603.46 -675.87C603 -675.32 601.85 -673.94 600 -671.74Z" id="a9UicYnq2"></path><path d="M-36.77 497.05L321.61 497.05L680 497.05L680 280L680 62.95L321.61 62.95L-36.77 62.95L-36.77 280L-36.77 497.05ZM353.59 192.97C353.59 248.43 353.49 252.79 351.77 256.22C346.08 267.95 333.19 273.15 320.19 269.2C313.59 267.12 308.82 263.18 305.88 257.15C303.74 252.89 303.34 250.51 303.34 243.24C303.34 232.85 303.95 232.12 311.97 233.16C312.31 233.2 314 233.41 317.04 233.79C317.41 238.15 317.61 240.57 317.65 241.05C317.96 245 318.77 249.36 319.58 250.61C323.44 256.74 334.91 256.53 337.76 250.19C338.57 248.53 338.87 232.02 338.87 197.44C338.87 194.08 338.87 177.29 338.87 147.07L201.81 147.07L64.65 147.07L64.75 220.28L64.85 293.5C96.29 293.5 113.75 293.5 117.24 293.5C176.13 293.5 173.39 293.09 173.39 300.98C173.39 303.26 172.88 305.96 172.37 307.11C171.36 308.98 169.53 309.08 111.66 309.08C66.58 309.08 51.66 308.77 50.74 307.83C49.83 306.9 49.52 286.13 49.52 220.7C49.52 143.95 49.73 134.61 51.15 133.15C52.57 131.7 67.6 131.49 201.61 131.49C293.69 131.49 351.16 131.91 352.07 132.53C353.39 133.36 353.59 141.25 353.59 192.97ZM593.5 307.83C591.57 309.81 210.65 309.6 209.02 307.73C208.31 306.69 207.8 290.18 207.7 252.89C207.68 249.34 207.58 231.54 207.4 199.51C204.78 207.61 203.32 212.11 203.03 213.01C200.59 220.39 198.16 227.03 197.55 227.76C196.43 229.22 185.77 229.63 183.94 228.28C183.44 227.87 181 221.43 178.56 214.05C176.13 206.58 173.79 199.83 173.28 198.99C172.78 198.06 172.37 212.18 172.47 232.02C172.47 251.02 172.17 267.02 171.86 267.54C171.05 268.89 159.48 268.89 158.66 267.54C157.55 265.67 158.16 171.78 159.27 170.23C160.49 168.77 175.01 168.25 177.14 169.71C178.26 170.43 180.8 177.39 187.29 197.13C188.72 201.59 190.24 205.23 190.54 205.23C190.95 205.23 192.27 201.8 193.59 197.64C194.91 193.59 196.53 188.71 197.24 187.05C198.06 185.29 199.58 180.92 200.8 177.29C201.91 173.55 203.44 170.23 204.15 169.71C206.18 168.36 220.6 168.77 221.92 170.12C222.83 171.06 223.13 186.32 223.13 232.44C223.13 236.51 223.13 256.86 223.13 293.5L401.31 293.5L579.49 293.5L579.49 220.28L579.49 147.07C527.77 147.07 499.04 147.07 493.29 147.07C395.93 147.07 403.85 147.79 403.85 138.76C403.85 135.02 404.36 133.36 405.68 132.63C406.79 131.91 438.06 131.59 500.1 131.8C581.22 132.01 592.89 132.22 593.7 133.57C595.23 136.06 595.02 306.27 593.5 307.83ZM486.29 190.48C487 198.06 485.98 199.2 478.47 198.79C472.48 198.48 472.38 198.37 472.07 195.36C471.26 186.22 468.01 182.38 461.01 182.38C457.35 182.38 455.93 183 453.5 185.39C450.96 188.09 450.55 189.23 450.55 194.22C450.55 199.1 450.96 200.45 453.6 203.46C455.22 205.43 459.49 208.55 462.94 210.42C474.61 216.65 481.31 222.26 484.56 228.18C487.3 233.16 487.61 234.72 487.61 243.13C487.61 254.14 485.78 258.81 478.88 264.73C470.04 272.52 452.89 272.63 443.14 264.94C438.06 261.1 434.31 253 434.31 246.14C434.31 239.7 435.53 238.46 441.72 238.25C447.2 238.15 448.52 238.87 448.52 241.89C448.52 250.71 452.89 255.08 461.72 255.08C466.19 255.08 467.4 254.66 469.94 252.06C472.38 249.57 472.89 248.12 472.89 244.17C472.89 234.72 470.96 232.64 453.09 222.05C439.89 214.26 436.44 208.76 436.24 195.15C436.03 181.75 439.89 174.38 449.54 170.02C455.22 167.42 466.19 167.11 471.67 169.5C479.79 172.93 485.48 181.03 486.29 190.48ZM555.12 186.84C555.94 190.48 556.24 202.32 555.94 222.36C555.63 250.92 555.53 252.69 553.4 256.63C548.42 266.19 541.62 270.03 529.74 270.13C520.4 270.13 516.75 268.78 511.16 263.49C504.66 257.46 504.46 256.32 504.06 221.84C503.85 204.5 503.95 188.61 504.36 186.43C505.38 180.61 510.15 174.28 516.04 170.85C520.5 168.25 522.13 167.84 529.34 167.84C536.14 167.84 538.37 168.25 542.84 170.54C549.34 173.86 553.6 179.47 555.12 186.84ZM139.37 206.26C140.9 212.29 142.83 219.45 143.64 222.36C144.65 226.2 144.96 232.64 144.76 247.81C144.74 249.16 144.63 255.91 144.45 268.06C140.61 268.24 138.48 268.35 138.05 268.37C133.18 268.58 131.56 268.37 131.15 267.12C130.85 266.29 130.54 259.64 130.44 252.27C130.43 251.38 130.36 246.95 130.24 238.98L116.84 238.67L103.43 238.35L103.13 253.21L102.83 268.06C98.99 268.24 96.86 268.35 96.43 268.37C90.44 268.68 90.03 268.58 89.12 265.98C87.9 262.66 87.8 233.06 89.02 228.07C96.23 198.99 103.54 171.68 104.65 170.12C105.36 169.29 109.12 168.88 117.04 168.88C124.96 168.88 128.71 169.29 129.42 170.12C130.34 171.37 133.08 181.24 139.37 206.26ZM284.56 205.74C285.88 210.83 287.6 217.9 288.52 221.32C289.73 225.89 290.14 232.54 290.14 247.49C290.14 248.83 290.14 255.51 290.14 267.54C288.74 267.85 287.96 268.02 287.81 268.06C286.49 268.47 283.44 268.58 280.9 268.37C280.6 268.35 279.11 268.24 276.43 268.06L276.13 253.21L275.83 238.46L262.73 238.46L249.53 238.46C249.53 246.43 249.53 250.87 249.53 251.75C249.53 268.26 249.23 268.78 240.9 268.37C240.49 268.35 238.46 268.24 234.81 268.06C234.63 256.03 234.52 249.35 234.5 248.01C234.3 232.23 234.61 226.72 235.93 222.05C236.74 218.83 239.99 206.06 243.13 193.8C246.48 180.09 249.33 170.95 250.34 170.12C251.36 169.29 255.62 168.88 262.83 168.88C270.24 168.88 274 169.29 274.71 170.12C275.62 171.37 278.26 181.03 284.56 205.74ZM383.44 211.04C383.44 239.6 383.75 249.16 384.66 250.71C388.11 256.32 398.47 256.53 402.53 251.02C403.44 249.78 403.75 239.6 403.85 211.46C403.85 168.36 403.75 168.88 411.06 168.88C419.69 168.88 419.08 165.87 419.08 211.25C419.08 256.22 419.08 256.11 411.57 263.7C402.53 272.94 384.86 272.73 375.63 263.38C368.52 256.11 368.32 254.66 368.32 210.83C368.32 167.22 368.01 168.88 375.93 168.88C379.38 168.88 380.7 169.4 381.92 171.16C383.34 173.13 383.54 178.74 383.44 211.04ZM71.66 364.74C71.96 372.22 71.76 373.26 70.13 373.68C66.58 374.61 65.77 373.47 65.77 367.65C65.77 367.28 65.77 365.41 65.77 362.04L61.2 362.04L56.63 362.04C56.63 365.41 56.63 367.28 56.63 367.65C56.63 372.53 56.33 373.47 54.5 373.99C53.08 374.51 51.96 374.19 51.45 373.36C49.22 369.73 51.05 356.12 56.22 338.37C56.43 337.53 58.05 337.22 61.3 337.53C63.84 337.85 66.07 338.16 66.17 338.37C67.7 340.55 71.35 358.31 71.66 364.74ZM84.04 347.5C86.42 347.5 87.74 347.5 88 347.5C90.74 347.5 92.67 348.23 94.6 350.1C97.04 352.39 97.24 353.22 97.24 361.01C97.24 372.22 96.02 373.47 85.57 373.47C85.06 373.47 82.52 373.47 77.95 373.47C77.95 362.94 77.95 357.09 77.95 355.92C77.95 337.64 78.15 336.81 82.32 337.95C83.64 338.26 84.04 339.51 84.04 342.94C84.04 343.54 84.04 345.07 84.04 347.5ZM201.31 372.64C200.9 373.57 198.97 373.88 194.2 373.68C185.47 373.16 183.54 370.98 183.54 361.32C183.54 351.66 186.18 347.61 192.47 347.5C195.62 347.5 195.72 347.4 195.72 343.04C195.72 337.64 196.03 337.22 199.27 337.95C199.44 337.98 200.29 338.12 201.81 338.37L201.81 354.77C201.68 366.13 201.51 372.08 201.31 372.64ZM309.02 371.81C309.53 373.16 308.92 373.47 306.49 373.47C306.28 373.47 305.23 373.47 303.34 373.47L303.24 361.73L303.14 350.1C302.16 353.03 301.62 354.66 301.51 354.98C299.28 362.04 295.52 361.73 293.29 354.46C292.58 352.39 291.87 350.62 291.56 350.62C291.36 350.62 291.26 354.98 291.26 360.17C291.46 373.78 291.56 373.47 288.62 373.47C288.45 373.47 287.6 373.47 286.08 373.47L286.08 355.71L286.08 338.05C288.39 338.24 289.68 338.34 289.94 338.37C293.39 338.68 293.8 339.09 295.01 342.83C297.35 350.31 297.35 350.31 299.38 344.49C301.51 338.05 302.43 337.22 305.98 337.95C306.14 337.98 306.95 338.12 308.42 338.37L308.42 354.26C308.62 365.33 308.82 371.18 309.02 371.81ZM453.6 349.58C456.34 349.58 457.86 349.58 458.17 349.58C462.33 349.58 462.73 349.79 462.73 352.18C462.73 354.57 462.33 354.77 458.17 354.77C457.86 354.77 456.34 354.77 453.6 354.77C453.6 358.51 453.6 360.59 453.6 361.01C453.6 364.43 453.8 367.24 454 367.24C454.21 367.24 455.22 367.55 456.03 367.86C457.25 368.38 457.96 367.55 458.78 365.26C459.69 362.77 460.4 362.04 462.13 362.25C465.07 362.67 465.48 367.13 462.73 370.66C459.89 374.3 454.31 374.51 450.86 371.18C448.83 369.31 448.52 367.96 448.52 361.84C448.52 355.5 448.32 354.77 446.49 354.77C444.97 354.77 444.46 354.05 444.46 352.07C444.46 350.31 445.07 349.17 446.49 348.85C448.22 348.44 448.52 347.4 448.52 342.83C448.52 337.64 448.62 337.43 451.06 337.95C453.39 338.37 453.6 338.88 453.6 343.97C453.6 344.72 453.6 346.59 453.6 349.58ZM406.9 368.28C409.03 368.28 410.21 368.28 410.45 368.28C413.6 368.28 414 368.59 414 370.87C414 371.04 414 371.91 414 373.47L403.34 373.47L392.68 373.47C392.68 371.91 392.68 371.04 392.68 370.87C392.68 368.48 393.09 368.28 396.74 368.28C397.01 368.28 398.37 368.28 400.8 368.28L400.8 355.92L400.8 343.45C398.85 343.27 397.77 343.16 397.55 343.14C395.02 342.94 394.1 342.31 393.9 340.44C393.6 338.26 393.9 338.16 400.19 338.16C400.64 338.16 402.87 338.16 406.9 338.16L406.9 353.22L406.9 368.28ZM122.42 361.84C122.12 368.38 121.71 369.83 119.68 371.49C116.33 374.3 109.73 374.09 106.68 371.18C104.65 369.21 104.35 367.96 104.35 360.8C104.35 353.22 104.55 352.39 107.19 350C110.85 346.47 116.94 347.09 120.39 351.24C122.62 353.84 122.83 354.88 122.42 361.84ZM148 348.75C148 357.66 148 362.61 148 363.6C148 377 147.8 378.66 145.87 381.15C141.81 386.45 129.32 383.54 133.18 378.14C134.4 376.38 134.91 376.27 137.45 377.52C139.88 378.66 140.49 378.56 141.61 377C143.33 374.51 142.42 373.47 138.26 373.47C135.82 373.47 133.89 372.64 132.27 370.87C130.03 368.69 129.73 367.44 129.73 361.01C129.73 354.15 129.93 353.32 132.67 350.52C135.72 347.4 138.56 346.88 144.86 348.13C145.28 348.21 146.33 348.42 148 348.75ZM175.42 360.49C175.42 364.12 175.92 367.44 176.43 367.76C177.04 368.07 177.45 369.52 177.45 370.87C177.45 373.26 177.14 373.26 169.32 373.36C162.52 373.36 160.8 373.05 159.17 371.39C156.63 368.79 156.53 363.71 159.07 361.11C161 359.14 161 359.14 159.07 358.62C156.23 357.79 156.74 354.05 160.09 350.52C163.44 347.19 166.89 346.67 171.25 349.06C174.91 350.93 175.42 352.39 175.42 360.49ZM225.67 370.77C223.54 373.68 215.21 374.3 212.17 371.81C210.24 370.04 209.93 368.69 209.73 361.21C209.43 352.8 209.53 352.49 212.37 349.89C214.91 347.71 216.13 347.4 219.48 347.82C222.02 348.23 224.35 349.27 225.37 350.62C227.7 353.63 227.91 367.76 225.67 370.77ZM253.79 354.77C254.2 358.31 250.34 358.93 248.21 355.81C247.2 354.36 245.88 353.74 244.35 353.94C240.29 354.57 241 356.75 245.77 357.99C254.2 360.07 257.14 365.99 252.37 371.08C250.65 372.95 249.12 373.47 244.76 373.47C238.36 373.47 235.32 371.08 235.32 366.2C235.32 363.6 235.72 363.08 237.65 363.08C239.28 363.08 240.49 364.02 241.2 365.78C242.22 367.86 243.03 368.38 245.27 368.07C249.23 367.65 248.62 365.16 244.25 363.6C238.06 361.52 235.32 359.14 235.32 356.23C235.32 352.7 237.04 349.69 239.68 348.54C242.93 347.09 249.53 348.13 251.66 350.31C252.68 351.35 253.69 353.32 253.79 354.77ZM332.78 360.9C332.78 365.16 333.19 368.28 333.8 368.28C334.41 368.28 334.81 369.42 334.81 370.77C334.81 373.16 334.61 373.26 326.99 373.26C317.04 373.36 314.51 371.91 314.51 366.3C314.51 363.91 315.12 361.73 316.13 360.9C317.55 359.76 317.55 359.55 316.13 358.72C311.77 356.23 317.76 347.5 323.64 347.5C325.88 347.5 327.81 348.44 329.84 350.52C332.58 353.32 332.78 354.15 332.78 360.9ZM359.48 358.41C359.69 361.11 359.28 361.52 356.94 361.84C354.51 362.15 354.1 361.84 354.1 359.55C354.1 355.81 353.09 353.74 351.16 353.74C348.11 353.74 346.99 356.02 346.99 362.25C346.99 362.65 346.99 364.66 346.99 368.28C349.74 368.28 351.26 368.28 351.56 368.28C355.73 368.28 356.13 368.48 356.13 370.87C356.13 373.47 356.03 373.47 346.99 373.47C337.96 373.47 337.86 373.47 337.86 370.87C337.86 369 338.37 368.28 339.89 368.28C341.72 368.28 341.92 367.55 341.92 360.9C341.92 352.91 342.93 349.89 346.28 348.54C349.63 347.19 351.87 347.3 355.12 349.06C358.16 350.62 359.08 352.7 359.48 358.41ZM385.57 360.8C385.57 367.44 385.27 368.69 383.04 370.87C381.31 372.74 379.48 373.47 376.54 373.47C376.27 373.47 374.91 373.47 372.48 373.47C372.3 376.4 372.19 378.02 372.17 378.35C371.87 382.92 371.67 383.33 369.13 383.65C368.94 383.67 367.99 383.77 366.28 383.96L366.28 366.3L366.28 348.65C368.3 348.4 369.41 348.26 369.64 348.23C376.64 347.4 379.08 347.61 381.51 349.27C385.27 351.87 385.57 352.59 385.57 360.8ZM437.35 359.66C437.35 363.71 437.86 367.44 438.37 367.76C438.98 368.07 439.38 369.52 439.38 370.77C439.38 373.05 439.08 373.26 431.57 373.26C425.68 373.36 423.24 372.95 421.92 371.7C419.69 369.63 419.48 362.87 421.62 360.69C422.94 359.34 422.94 359.03 421.62 358.51C418.47 357.27 420.5 350.2 424.46 348.54C427.51 347.19 432.68 348.02 435.22 350.2C437.05 351.87 437.35 353.32 437.35 359.66ZM489.13 358.1C489.13 363.5 488.01 364.43 482.33 363.71C477.96 363.19 476.14 364.43 477.86 366.61C479.59 368.69 482.63 368.79 483.45 366.72C483.75 365.89 485.17 365.16 486.59 365.16C489.84 365.16 489.94 367.76 486.9 371.08C483.85 374.4 477.76 374.4 474.41 370.87C472.18 368.69 471.87 367.44 471.87 360.8C471.87 352.59 472.18 351.87 475.93 349.27C478.88 347.19 481.31 347.09 484.36 348.75C487.91 350.62 489.03 352.91 489.13 358.1ZM516.54 364.33C516.54 373.36 516.54 373.47 514.01 373.47C511.47 373.47 511.47 373.36 511.47 364.85C511.47 355.19 510.76 353.42 507.3 353.94C504.97 354.26 504.87 354.67 504.56 363.81C504.26 373.26 504.26 373.47 501.82 373.47C501.65 373.47 500.81 373.47 499.28 373.47L499.28 361.11L499.28 348.65C500.99 348.4 501.94 348.26 502.13 348.23C507.61 347.4 509.54 347.5 512.38 349.06C515.93 350.93 516.54 352.91 516.54 364.33ZM541.01 357.89C539.89 357.89 538.37 356.96 537.56 355.71C536.54 354.36 535.22 353.74 533.6 353.94C529.54 354.46 530.96 357.06 536.04 358.41C538.68 359.03 541.52 360.17 542.33 361.01C544.67 362.87 544.36 368.28 541.72 371.08C536.85 376.38 524.16 372.84 524.87 366.3C525.27 362.36 529.34 361.94 530.76 365.68C531.57 367.86 532.38 368.38 534.51 368.07C538.78 367.55 538.78 364.54 534.61 363.71C528.93 362.67 524.67 359.34 524.67 356.12C524.77 348.34 535.83 344.6 541.01 350.72C543.65 353.84 543.65 357.89 541.01 357.89ZM568.32 358.41C568.32 363.39 567.41 364.02 560.2 363.71C557.05 363.6 556.14 364.02 556.14 365.37C556.14 367.86 560 368.79 562.13 366.82C564.57 364.64 568.32 364.64 568.32 366.93C568.32 367.86 567.31 369.73 566.09 371.08C563.04 374.4 556.95 374.4 553.6 370.87C551.37 368.69 551.06 367.44 551.06 360.8C551.06 352.28 551.47 351.35 555.63 349.17C559.39 347.09 560.61 347.09 564.16 349.06C567.61 350.83 568.32 352.49 568.32 358.41ZM594.92 354.77C595.33 358.2 591.37 359.03 589.64 355.81C588.83 354.26 587.71 353.74 585.89 353.94C581.32 354.46 582.03 356.64 587.1 357.99C592.69 359.45 595.73 362.36 595.73 366.3C595.73 373.05 584.06 376.17 578.88 370.87C575.73 367.65 575.94 363.71 579.18 363.29C580.91 362.98 581.82 363.6 582.54 365.58C583.55 368.38 586.7 369.11 589.54 367.34C591.57 365.99 590.15 364.43 586.29 363.6C578.58 361.84 575.73 358.72 576.95 353.42C578.37 347.92 588.63 345.95 592.89 350.31C593.8 351.35 594.82 353.32 594.92 354.77ZM165.77 423.73C167.9 423.73 169.09 423.73 169.32 423.73C172.47 423.84 172.88 424.15 172.88 426.43C172.88 429.03 172.88 429.03 161.91 429.34C161.18 429.36 157.53 429.47 150.95 429.65C151.13 427.91 151.23 426.94 151.25 426.74C151.56 424.15 151.96 423.84 155.92 423.53C156.21 423.5 157.63 423.4 160.19 423.21L160.19 411.27L160.19 399.43C158.36 399.43 157.34 399.43 157.14 399.43C155.31 399.43 153.79 398.7 153.18 397.56C151.66 394.55 153.79 393.2 159.88 393.2C160.23 393.2 161.99 393.2 165.16 393.2L165.47 408.47L165.77 423.73ZM243.24 427.16C240.39 430.28 234.61 430.38 230.85 427.37C228.51 425.5 228.11 424.56 228.41 420.31C228.72 416.36 229.02 415.53 230.75 415.53C232.27 415.53 232.88 416.36 233.08 418.85C233.39 421.55 234 422.38 236.03 422.9C239.78 423.94 240.39 422.18 240.39 410.02C240.39 409.32 240.39 405.79 240.39 399.43C237.35 399.43 235.65 399.43 235.32 399.43C230.04 399.43 228.31 398.08 229.63 394.76C230.04 393.62 231.97 393.2 237.85 393.2C238.36 393.2 240.9 393.2 245.47 393.2L245.47 408.99C245.4 419.58 244.66 425.64 243.24 427.16ZM310.55 404.52C313.11 404.71 314.53 404.81 314.81 404.83C318.57 405.14 319.08 405.45 319.08 407.74C319.08 410.02 318.57 410.34 314.71 410.65C314.42 410.67 312.96 410.77 310.34 410.96C310.53 414.51 310.63 416.48 310.65 416.88C310.85 421.55 311.36 422.9 312.68 423.11C313.9 423.32 314.81 422.49 315.52 420.83C316.54 417.92 320.29 417.09 321.21 419.48C321.92 421.45 319.89 426.54 317.76 428.09C314.61 430.59 309.84 429.86 306.99 426.33C304.76 423.73 304.35 422.07 304.35 416.98C304.35 412.21 304.05 410.86 302.83 410.86C301.82 410.86 301.31 409.82 301.31 407.74C301.31 405.66 301.82 404.62 302.83 404.62C303.95 404.62 304.35 403.38 304.35 399.64C304.35 393.93 304.86 392.99 307.91 393.41C309.63 393.72 309.94 394.55 310.24 399.12C310.28 399.84 310.38 401.64 310.55 404.52ZM337.86 400.99C334.81 400.99 334.3 400.68 334.2 398.39C334.1 394.03 334.91 393.1 338.26 393.41C341.11 393.72 341.41 394.03 341.41 397.35C341.41 400.78 341.21 400.99 337.86 400.99ZM389.23 401.09C385.37 402.03 383.54 400.89 383.54 397.56C383.54 393.72 384.36 392.99 388.11 393.41C390.75 393.72 391.16 394.13 391.46 397.04C391.77 399.95 391.36 400.47 389.23 401.09ZM470.86 402.13C470.86 404.1 470.35 404.62 468.32 404.62C466.49 404.62 465.78 404.1 465.78 402.55C465.78 401.3 464.87 400.26 463.34 399.85C460.09 399.02 458.67 400.05 458.67 403.17C458.67 405.14 459.89 406.39 464.26 408.88C470.76 412.62 471.87 414.28 471.87 420.2C471.87 426.12 468.42 429.55 462.63 429.55C459.28 429.55 457.86 428.93 455.53 426.23C451.77 422.18 451.87 418.75 455.83 418.33C457.96 418.02 458.57 418.44 458.88 420.41C459.08 422.38 459.79 422.8 462.73 422.8C465.98 422.8 466.29 422.59 466.29 419.68C466.29 417.09 465.48 416.15 461.01 413.56C454.31 409.61 451.87 405.25 453.6 399.95C455.63 393.62 460.81 391.64 466.69 394.76C469.84 396.32 470.86 398.19 470.86 402.13ZM537.05 400.78C535.33 400.37 534.82 399.43 534.82 396.63C534.82 393.2 535.02 393.1 538.07 393.41C540.6 393.62 541.42 394.34 542.03 396.63C542.94 399.95 540.71 401.82 537.05 400.78ZM591.67 423.42C592.28 423.53 593.6 423.63 594.82 423.73C597.26 423.84 598.98 426.43 597.87 428.3C597.36 429.24 594.21 429.55 587 429.34C578.17 429.03 576.95 428.82 576.65 427.06C576.14 424.56 577.66 423.63 582.03 423.84C582.26 423.84 583.45 423.88 585.58 423.94L585.58 411.69L585.58 399.43C583.75 399.43 582.74 399.43 582.54 399.43C579.29 399.43 577.76 397.56 578.88 394.76C579.29 393.62 581.01 393.2 585.07 393.2C585.45 393.2 587.31 393.2 590.66 393.2L590.66 408.26C590.93 418.3 591.27 423.35 591.67 423.42ZM71.66 419.16C71.15 426.85 68.61 429.55 62.01 429.55C61.72 429.55 60.27 429.55 57.65 429.55C57.65 432.66 57.65 434.4 57.65 434.74C57.65 439.62 57.44 439.93 55.11 439.93C54.94 439.93 54.09 439.93 52.57 439.93L52.57 421.76L52.57 403.59C56.83 403.59 59.2 403.59 59.68 403.59C65.36 403.59 67.19 404 68.81 405.66C71.45 408.36 72.16 411.79 71.66 419.16ZM95.21 416.15C95.21 426.12 92.98 429.55 86.48 429.55C82.82 429.55 81.4 429.03 79.47 426.85C77.24 424.36 76.94 423.11 76.94 416.36C76.94 409.61 77.24 408.36 79.47 406.18C81.3 404.21 83.03 403.59 86.07 403.59C89.12 403.59 90.85 404.21 92.67 406.18C94.91 408.36 95.21 409.61 95.21 416.15ZM120.39 412.72C120.08 416.88 119.78 417.61 117.85 417.92C115.82 418.23 115.52 417.81 115.52 414.8C115.52 410.23 111.86 407.43 109.73 410.44C109.02 411.48 108.41 414.7 108.41 417.71C108.41 418.08 108.41 419.91 108.41 423.21C111.03 423.4 112.48 423.5 112.77 423.53C116.53 423.84 117.04 424.15 117.04 426.43C117.04 428.93 116.84 429.03 108.1 429.55C107.52 429.58 104.57 429.76 99.27 430.07C99.27 428.32 99.27 427.35 99.27 427.16C99.27 425.08 99.88 424.04 101.3 423.63C103.13 423.11 103.33 422.18 103.33 415.63C103.33 409.51 103.74 407.74 105.36 405.87C108.21 402.75 115.21 402.75 118.46 405.77C120.29 407.53 120.59 408.88 120.39 412.72ZM194.71 414.28C194.71 418.12 195.32 421.45 196.33 423.32C199.17 428.09 197.85 429.24 189.43 429.34C180.09 429.44 177.45 427.99 177.45 422.49C177.45 417.29 178.26 416.36 184.15 414.07C189.22 412.1 189.93 411.06 187.29 409.4C185.67 408.36 182.52 410.65 182.52 412.83C182.52 413.45 181.41 413.97 179.98 413.97C177.85 413.97 177.45 413.45 177.45 410.96C177.45 404.42 188.11 400.89 192.68 405.87C194.2 407.64 194.71 409.51 194.71 414.28ZM261.71 422.8C264.25 422.8 264.25 422.69 264.56 413.14C264.58 412.5 264.68 409.32 264.86 403.59L267.8 403.59L270.85 403.59L270.85 416.57L270.85 429.55C266.89 429.55 264.69 429.55 264.25 429.55C258.46 429.55 257.25 429.24 255.11 426.95C252.78 424.67 252.58 423.73 252.58 413.97C252.58 413.27 252.58 409.78 252.58 403.48C254.28 403.67 255.23 403.77 255.42 403.79C258.16 404.1 258.16 404.21 258.67 413.45C259.18 422.59 259.28 422.8 261.71 422.8ZM296.23 410.86C296.23 413.76 291.56 413.66 289.13 410.54C287.6 408.78 286.89 408.47 285.47 409.3C282.63 411.17 283.34 412.31 288.21 413.97C294.4 416.05 296.23 417.71 296.23 421.55C296.23 426.64 292.78 429.55 286.89 429.55C282.83 429.55 281.51 429.03 279.38 426.74C276.13 423.21 276.54 419.79 280.09 419.37C282.12 419.16 282.93 419.58 283.34 421.24C283.74 423.01 284.56 423.42 287.3 423.11C291.97 422.69 291.26 421.03 285.57 419.16C280.6 417.5 276.94 413.97 276.94 410.86C276.94 409.92 278.06 407.84 279.48 406.29C282.93 402.55 290.14 402.44 293.69 406.18C295.12 407.53 296.23 409.61 296.23 410.86ZM340.9 423.21C342.91 423.4 344.03 423.5 344.25 423.53C346.99 423.73 347.6 424.36 347.81 426.64C347.83 426.83 347.93 427.8 348.11 429.55L337.35 429.55L326.59 429.55C326.77 427.8 326.87 426.83 326.89 426.64C327.2 424.15 327.6 423.84 331.56 423.53C331.85 423.5 333.27 423.4 335.83 423.21L335.83 415.94L335.83 408.78C333.76 408.78 332.61 408.78 332.38 408.78C328.92 408.78 327.6 407.43 328.52 404.83C328.82 404 331.06 403.59 334.91 403.59C335.31 403.59 337.31 403.59 340.9 403.59L340.9 413.35L340.9 423.21ZM367.91 413.97C366.39 413.97 365.27 413.24 364.97 411.89C364.25 409.19 361.61 408.16 359.58 409.82C358.47 410.86 358.16 412.72 358.37 416.98C358.67 422.49 358.77 422.8 361.51 423.11C363.75 423.42 364.56 423.01 364.97 421.34C365.27 419.89 366.28 419.16 367.91 419.16C371.06 419.16 371.26 422.9 368.21 426.85C365.47 430.38 358.98 430.69 355.42 427.26C353.39 425.29 353.09 424.04 353.09 416.46C353.09 408.47 353.29 407.74 355.73 405.77C359.48 402.75 364.76 402.96 367.81 406.18C371.16 409.61 371.26 413.97 367.91 413.97ZM390.65 423.21C392.66 423.4 393.78 423.5 394 423.53C396.74 423.73 397.25 424.25 397.25 426.43C397.25 429.03 397.15 429.03 386.79 429.34C386.1 429.36 382.61 429.47 376.34 429.65C376.52 427.91 376.62 426.94 376.64 426.74C376.95 424.15 377.35 423.84 381.11 423.53C385.17 423.21 385.27 423.11 384.97 419.89C384.86 418.02 384.66 414.8 384.66 412.62C384.56 409.09 384.36 408.78 381.62 408.78C378.26 408.78 376.95 407.43 377.86 405.14C378.26 404 380.09 403.59 384.56 403.59C384.97 403.59 387 403.59 390.65 403.59L390.65 413.35L390.65 423.21ZM421.11 415.11C421.11 418.96 421.62 422.49 422.12 422.8C422.73 423.11 423.14 424.77 423.14 426.33C423.14 426.52 423.14 427.49 423.14 429.24C418.51 429.3 415.94 429.33 415.42 429.34C409.13 429.34 407.4 429.03 405.78 427.37C403.04 424.56 403.24 418.85 406.08 416.05C406.23 415.91 406.98 415.22 408.32 413.97C406.98 413.97 406.23 413.97 406.08 413.97C402.94 413.97 403.14 409.4 406.39 406.18C409.64 402.75 416.03 402.55 419.08 405.87C420.7 407.64 421.11 409.51 421.11 415.11ZM495.22 416.88C495.22 423.53 494.92 425.08 492.99 427.16C490.15 430.28 484.36 430.38 480.6 427.37C478.17 425.39 477.96 424.67 477.96 416.98C477.96 409.61 478.27 408.47 480.5 406.18C484.05 402.44 490.25 402.55 493.09 406.29C494.82 408.57 495.22 410.54 495.22 416.88ZM521.42 411.27C521.01 414.18 516.95 414.8 516.04 412.1C515.22 409.4 512.58 408.36 510.76 409.92C509.74 410.86 509.44 412.93 509.64 416.98C509.94 422.38 510.15 422.8 512.69 423.11C514.61 423.32 515.53 422.9 516.04 421.34C516.44 419.89 517.56 419.16 519.28 419.16C521.62 419.16 521.82 419.48 521.21 422.49C519.89 429.44 512.18 431.83 506.7 427.06C504.06 424.67 503.85 424.04 503.85 416.57C503.85 409.09 504.06 408.47 506.7 406.08C510.65 402.55 515.83 402.75 519.18 406.39C520.6 407.95 521.62 410.13 521.42 411.27ZM545.38 423.73C546.9 423.84 547.61 424.67 547.81 426.64C547.83 426.83 547.94 427.8 548.12 429.55L537.86 429.55L527.61 429.55C527.79 427.8 527.89 426.83 527.91 426.64C528.12 424.46 528.73 423.84 530.76 423.73C532.18 423.63 533.9 423.53 534.61 423.42C535.43 423.32 535.83 421.14 535.83 416.05C535.83 415.56 535.83 413.14 535.83 408.78C534.07 408.78 533.09 408.78 532.89 408.78C529.54 408.78 528.22 407.43 529.13 405.04C529.54 403.9 531.06 403.59 535.53 403.79C535.91 403.81 537.84 403.92 541.32 404.1L541.01 413.04C541.08 420.03 542.53 423.59 545.38 423.73ZM571.37 415.84C571.37 419.68 571.87 423.42 572.48 424.04C573.09 424.67 573.4 426.02 573.19 427.06C572.89 428.72 571.77 429.03 565.58 429.24C556.65 429.44 553.09 427.37 553.09 421.86C553.09 417.81 555.22 415.63 560.71 413.66C565.07 412.1 566.39 410.13 563.65 409.09C562.43 408.67 561.11 409.3 559.49 411.27C556.44 414.91 553.5 414.49 553.8 410.44C554.31 403.79 563.85 401.09 568.83 406.18C571.06 408.36 571.37 409.61 571.37 415.84Z" id="g2jn3t74Kv"></path><path d="M69.86 -663.97C68.8 -658.9 66.4 -649.97 64.67 -644.11C63.07 -638.25 61.2 -631.45 60.67 -629.19C60.61 -628.89 60.3 -627.43 59.74 -624.79L73.99 -624.79L88.12 -624.79C87.56 -627.83 87.25 -629.52 87.19 -629.85C86.65 -632.52 85.45 -637.18 84.52 -640.11C83.06 -644.64 78.92 -660.1 76.39 -671.16C75.59 -674.49 73.86 -676.09 72.79 -674.23C72.39 -673.56 71.06 -668.9 69.86 -663.97Z" id="c2EmYAaI6G"></path><path d="M252.57 -632.69C251.91 -629.62 252.04 -629.62 266.03 -629.62C281.89 -629.62 281.35 -629.22 278.29 -639.75C277.22 -643.35 274.43 -653.47 272.16 -662.27C268.03 -678.26 266.16 -682.39 264.96 -678.79C264.03 -676.26 253.37 -636.28 252.57 -632.69Z" id="b1aMqpI8TY"></path></defs><g><g><g><use xlink:href="#a9UicYnq2" opacity="1" fill="#ffffff" fill-opacity="1"></use><g><use xlink:href="#a9UicYnq2" opacity="1" fill-opacity="0" stroke="#000000" stroke-width="1" stroke-opacity="0"></use></g></g><g><use xlink:href="#g2jn3t74Kv" opacity="1" fill="#ffffff" fill-opacity="1"></use><g><use xlink:href="#g2jn3t74Kv" opacity="1" fill-opacity="0" stroke="#921b1b" stroke-width="1" stroke-opacity="0"></use></g></g><g><use xlink:href="#c2EmYAaI6G" opacity="1" fill="#ffffff" fill-opacity="1"></use><g><use xlink:href="#c2EmYAaI6G" opacity="1" fill-opacity="0" stroke="#000000" stroke-width="1" stroke-opacity="0"></use></g></g><g><use xlink:href="#b1aMqpI8TY" opacity="1" fill="#ffffff" fill-opacity="1"></use><g><use xlink:href="#b1aMqpI8TY" opacity="1" fill-opacity="0" stroke="#000000" stroke-width="1" stroke-opacity="0"></use></g></g></g></g></svg>